HIERARCHY
ROOT Hips
{
	OFFSET 0.00000 0.00000 0.00000
	CHANNELS 6 Xposition Yposition Zposition Zrotation Yrotation Xrotation 
	JOINT LHipJoint
	{
		OFFSET 0 0 0
		CHANNELS 3 Zrotation Yrotation Xrotation
		JOINT LeftUpLeg
		{
			OFFSET 1.56857 -1.73443 1.15205
			CHANNELS 3 Zrotation Yrotation Xrotation
			JOINT LeftLeg
			{
				OFFSET 2.39362 -6.57643 0.00000
				CHANNELS 3 Zrotation Yrotation Xrotation
				JOINT LeftFoot
				{
					OFFSET 2.50952 -6.89485 0.00000
					CHANNELS 3 Zrotation Yrotation Xrotation
					JOINT LeftToeBase
					{
						OFFSET 0.17171 -0.47178 1.88682
						CHANNELS 3 Zrotation Yrotation Xrotation
						End Site
						{
							OFFSET 0.00000 -0.00000 0.98146
						}
					}
				}
			}
		}
	}
	JOINT RHipJoint
	{
		OFFSET 0 0 0
		CHANNELS 3 Zrotation Yrotation Xrotation
		JOINT RightUpLeg
		{
			OFFSET -1.28153 -1.73443 1.15205
			CHANNELS 3 Zrotation Yrotation Xrotation
			JOINT RightLeg
			{
				OFFSET -2.26861 -6.23296 0.00000
				CHANNELS 3 Zrotation Yrotation Xrotation
				JOINT RightFoot
				{
					OFFSET -2.54143 -6.98254 0.00000
					CHANNELS 3 Zrotation Yrotation Xrotation
					JOINT RightToeBase
					{
						OFFSET -0.23309 -0.64041 1.93119
						CHANNELS 3 Zrotation Yrotation Xrotation
						End Site
						{
							OFFSET -0.00000 -0.00000 1.02013
						}
					}
				}
			}
		}
	}
	JOINT LowerBack
	{
		OFFSET 0 0 0
		CHANNELS 3 Zrotation Yrotation Xrotation
		JOINT Spine
		{
			OFFSET -0.07096 2.10460 -0.27878
			CHANNELS 3 Zrotation Yrotation Xrotation
			JOINT Spine1
			{
				OFFSET -0.00826 2.13662 -0.08279
				CHANNELS 3 Zrotation Yrotation Xrotation
				JOINT Neck
				{
					OFFSET 0 0 0
					CHANNELS 3 Zrotation Yrotation Xrotation
					JOINT Neck1
					{
						OFFSET 0.03239 1.77799 0.24435
						CHANNELS 3 Zrotation Yrotation Xrotation
						JOINT Head
						{
							OFFSET 0.01026 1.74194 -0.49664
							CHANNELS 3 Zrotation Yrotation Xrotation
							End Site
							{
								OFFSET 0.00170 1.83057 -0.19653
							}
						}
					}
				}
				JOINT LeftShoulder
				{
					OFFSET 0 0 0
					CHANNELS 3 Zrotation Yrotation Xrotation
					JOINT LeftArm
					{
						OFFSET 3.19178 1.35907 -0.31412
						CHANNELS 3 Zrotation Yrotation Xrotation
						JOINT LeftForeArm
						{
							OFFSET 4.85247 -0.00000 -0.00000
							CHANNELS 3 Zrotation Yrotation Xrotation
							JOINT LeftHand
							{
								OFFSET 3.55584 -0.00000 0.00000
								CHANNELS 3 Zrotation Yrotation Xrotation
								JOINT LeftFingerBase
								{
									OFFSET 0 0 0
									CHANNELS 3 Zrotation Yrotation Xrotation
									JOINT LeftHandIndex1
									{
										OFFSET 0.69320 -0.00000 0.00000
										CHANNELS 3 Zrotation Yrotation Xrotation
										End Site
										{
											OFFSET 0.55888 -0.00000 0.00000
										}
									}
								}
								JOINT LThumb
								{
									OFFSET 0 0 0
									CHANNELS 3 Zrotation Yrotation Xrotation
									End Site
									{
										OFFSET 0.56741 -0.00000 0.56741
									}
								}
							}
						}
					}
				}
				JOINT RightShoulder
				{
					OFFSET 0 0 0
					CHANNELS 3 Zrotation Yrotation Xrotation
					JOINT RightArm
					{
						OFFSET -3.28999 1.24191 -0.26899
						CHANNELS 3 Zrotation Yrotation Xrotation
						JOINT RightForeArm
						{
							OFFSET -4.64462 -0.00000 0.00000
							CHANNELS 3 Zrotation Yrotation Xrotation
							JOINT RightHand
							{
								OFFSET -3.40703 -0.00000 0.00000
								CHANNELS 3 Zrotation Yrotation Xrotation
								JOINT RightFingerBase
								{
									OFFSET 0 0 0
									CHANNELS 3 Zrotation Yrotation Xrotation
									JOINT RightHandIndex1
									{
										OFFSET -0.61958 -0.00000 0.00000
										CHANNELS 3 Zrotation Yrotation Xrotation
										End Site
										{
											OFFSET -0.49952 -0.00000 0.00000
										}
									}
								}
								JOINT RThumb
								{
									OFFSET 0 0 0
									CHANNELS 3 Zrotation Yrotation Xrotation
									End Site
									{
										OFFSET -0.50715 -0.00000 0.50715
									}
								}
							}
						}
					}
				}
			}
		}
	}
}
MOTION
Frames: 16
Frame Time: .0083333
-29.8852 16.4762 2.0792 0 0 0 0 0 0 -21 0 0 0 0 0 0 0 0 0 0 0 0 0 0 21 0 0 0 0 0 0 0 0 0 0 0 0 0 0 0 0 0 0 0 0 0 0 -16 0 0 21 0 0 11 0 0 0 -8 0 0 0 0 0 0 0 0 0 0 0 0 0 0 0 0 0 0 0 0 8 0 0 0 0 0 0 0 0 0 0 0 0 0 0 0 0 0
-29.8852 16.4762 2.0792 41.1801 83.4220 42.8387 0.0000 0.0000 0.0000 -22.9936 0.4075 -4.1351 1.9318 8.7226 24.9314 2.0892 3.6149 -28.7888 1.2786 -7.1660 -20.2081 0.0000 0.0000 0.0000 16.6028 -5.8071 -8.1706 -1.9365 -8.7326 24.9623 -1.8358 13.2182 -24.6548 -0.3180 -3.6252 10.0245 -7.9210 2.0121 1.7778 -1.6342 2.6629 1.8733 2.7063 1.2811 0.6643 2.6354 0.5642 -19.0547 1.3633 -0.1697 23.5239 0.0412 0.4222 10.7361 0.0000 -0.0000 0.0000 -84.2353 2.1269 34.5207 13.7887 -22.4318 -2.7470 -0.0000 -0.0000 11.6349 16.7754 -27.3971 -7.8973 -7.1250 0.0000 -0.0000 -7.9763 1.7917 7.7997 0.0000 -0.0000 0.0000 87.5626 -3.9305 35.7391 -15.6386 25.0281 -3.4916 0.0000 0.0000 2.5009 -14.3596 -26.9670 6.6220 7.1250 -0.0000 -0.0000 17.3199 -56.8382 -5.1307
-29.8772 16.4723 2.0926 41.7707 83.5525 43.3934 0.0000 0.0000 0.0000 -22.7280 1.1930 -4.5664 1.9733 8.8103 25.2038 2.0551 3.0075 -28.2964 1.3953 -7.4728 -21.1239 0.0000 0.0000 0.0000 16.7231 -5.7116 -7.9851 -1.9281 -8.7148 24.9071 -1.8678 13.0264 -24.8292 -0.3719 -3.9171 10.8436 -7.7508 2.0033 1.9348 -1.6641 2.6382 1.8764 2.5758 1.2735 0.5901 2.8748 0.5628 -19.4527 1.0199 -0.1783 23.6376 -0.1228 0.3975 10.8533 0.0000 -0.0000 0.0000 -84.0954 2.3698 34.5439 14.0407 -22.7929 -2.8439 -0.0000 -0.0000 11.2342 17.4910 -27.3984 -8.2511 -7.1250 0.0000 -0.0000 -7.5508 1.6741 7.3920 0.0000 -0.0000 0.0000 87.5851 -3.7971 35.9637 -15.6395 25.0294 -3.4920 0.0000 0.0000 2.4846 -14.1931 -27.1310 6.5791 7.1250 -0.0000 -0.0000 17.5904 -56.9605 -5.2668
-29.8706 16.4722 2.1066 42.4493 83.6533 44.0821 0.0000 0.0000 0.0000 -22.6840 0.8478 -4.7527 2.0630 8.9962 25.7834 2.1270 2.9419 -28.7345 1.3501 -7.3559 -20.7742 0.0000 0.0000 0.0000 16.8459 -5.5328 -7.6650 -1.8736 -8.5978 24.5450 -1.8866 12.7295 -24.9071 -0.4225 -4.1716 11.5601 -7.6911 1.9460 2.2822 -1.5967 2.5150 1.7091 2.5989 1.2270 0.2333 2.8931 0.5960 -19.5741 0.7197 -0.0641 23.7018 -0.2172 0.4131 10.9002 -0.0000 -0.0000 0.0000 -84.1891 2.9942 34.2681 14.4063 -23.3126 -2.9870 -0.0000 -0.0000 10.9844 17.4234 -27.3085 -8.1931 -7.1250 0.0000 -0.0000 -7.5827 1.7762 7.4098 -0.0000 -0.0000 0.0000 87.3751 -3.8622 36.4960 -15.6307 25.0174 -3.4883 0.0000 0.0000 2.4210 -14.1411 -27.0890 6.5449 7.1250 -0.0000 -0.0000 17.6179 -56.9094 -5.2535
-29.8610 16.4736 2.1233 39.9508 83.8488 41.5637 0.0000 0.0000 0.0000 -22.1790 1.2324 -5.1320 2.1616 9.1949 26.4070 2.1686 2.4759 -28.8057 1.3334 -7.3121 -20.6433 0.0000 0.0000 0.0000 17.2823 -5.6995 -7.4467 -1.8193 -8.4791 24.1790 -1.8679 12.7721 -24.7947 -0.4053 -4.0869 11.3212 -7.2923 1.9150 2.3637 -1.4686 2.4702 1.7321 2.5087 1.2054 0.2251 2.9025 0.6702 -19.5552 0.4984 0.0899 23.4010 -0.2771 0.4472 10.7862 0.0000 0.0000 0.0000 -84.2603 3.0909 33.9165 14.5055 -23.4528 -3.0264 -0.0000 -0.0000 10.7712 17.8214 -27.2502 -8.3736 -7.1250 0.0000 -0.0000 -7.3402 1.7696 7.1697 0.0000 0.0000 0.0000 87.2600 -3.5379 36.8962 -15.5256 24.8732 -3.4440 0.0000 0.0000 2.4904 -14.1048 -27.1347 6.5376 7.1250 -0.0000 -0.0000 17.6832 -56.9456 -5.2894
-29.8516 16.4726 2.1387 35.6490 84.1122 37.1401 0.0000 0.0000 0.0000 -21.4822 1.4873 -5.4086 2.2827 9.4316 27.1549 2.1892 2.1307 -28.7975 1.3326 -7.3099 -20.6369 0.0000 0.0000 0.0000 17.8975 -5.9715 -7.0697 -1.7524 -8.3300 23.7211 -1.8351 12.9309 -24.6087 -0.4442 -4.2762 11.8550 -6.6690 1.9572 2.5525 -1.3372 2.5203 1.7813 2.2908 1.2334 0.1833 2.9271 0.7697 -19.6121 0.3687 0.2496 23.2510 -0.3048 0.5012 10.7436 0.0000 -0.0000 0.0000 -84.1493 3.2663 34.0512 14.6929 -23.7165 -3.1014 -0.0000 -0.0000 10.3322 18.3645 -27.1239 -8.6064 -7.1250 0.0000 -0.0000 -7.0042 1.8069 6.8316 0.0000 -0.0000 0.0000 87.2268 -3.2659 37.2616 -15.4961 24.8326 -3.4316 0.0000 0.0000 2.6223 -14.1258 -27.7712 6.6879 7.1250 -0.0000 -0.0000 18.0601 -57.5571 -5.6764
-29.8429 16.4646 2.1536 32.7661 84.3382 34.0909 0.0000 0.0000 0.0000 -20.9933 1.3148 -5.5974 2.4260 9.7021 28.0172 2.2173 2.0014 -28.9256 1.3395 -7.3280 -20.6907 0.0000 0.0000 0.0000 18.3610 -6.1476 -6.5895 -1.6834 -8.1729 23.2406 -1.8232 12.9489 -24.5356 -0.4324 -4.2198 11.6958 -6.1755 1.9785 2.8198 -1.2638 2.5394 1.8512 2.0833 1.2464 0.1200 2.9488 0.8217 -19.7545 0.2086 0.3460 23.1068 -0.3521 0.5220 10.7188 -0.0000 0.0000 0.0000 -83.9892 3.4663 34.2828 14.9617 -24.0927 -3.2103 -0.0000 -0.0000 9.5278 17.5667 -26.9524 -8.1656 -7.1250 0.0000 -0.0000 -7.4646 2.1135 7.2466 -0.0000 0.0000 0.0000 87.1529 -3.0823 38.0553 -15.5783 24.9455 -3.4662 0.0000 0.0000 2.8660 -14.7274 -28.6479 7.1825 7.1250 -0.0000 -0.0000 18.0103 -58.5224 -6.0819
-29.8321 16.4517 2.1695 29.1618 84.5485 30.3458 0.0000 0.0000 0.0000 -20.4433 1.2246 -5.8632 2.5783 9.9789 28.9085 2.2333 1.8265 -28.9590 1.3613 -7.3850 -20.8610 0.0000 0.0000 0.0000 18.8544 -6.3918 -6.2475 -1.6264 -8.0402 22.8363 -1.8099 13.0010 -24.4583 -0.3701 -3.9078 10.8174 -5.5851 1.9821 3.0817 -1.2268 2.5403 1.9077 1.7847 1.2516 0.0534 2.9407 0.8557 -19.9102 0.1711 0.3929 22.9480 -0.3575 0.5328 10.6905 -0.0000 -0.0000 0.0000 -83.8466 3.5611 34.0573 15.0745 -24.2498 -3.2565 -0.0000 -0.0000 9.1968 16.9492 -27.1167 -7.9084 -7.1250 0.0000 -0.0000 -7.8481 2.0471 7.6354 -0.0000 -0.0000 0.0000 87.2009 -2.8077 38.0627 -15.4951 24.8313 -3.4312 0.0000 0.0000 2.7786 -14.5121 -27.6553 6.8508 7.1250 -0.0000 -0.0000 17.5877 -57.5290 -5.5096
-29.8221 16.4433 2.1831 27.5603 84.6008 28.6963 0.0000 0.0000 0.0000 -20.1666 1.3362 -6.3588 2.7437 10.2681 29.8493 2.2261 1.7366 -28.8788 1.4072 -7.5033 -21.2154 0.0000 0.0000 0.0000 19.0623 -6.5415 -6.0287 -1.5774 -7.9239 22.4832 -1.7943 12.9902 -24.3574 -0.3932 -4.0265 11.1514 -5.3966 2.0532 3.3502 -1.1562 2.6185 1.8778 1.7386 1.2959 -0.1288 2.8552 0.7955 -20.1383 0.1314 0.3328 22.9368 -0.3662 0.4909 10.7282 -0.0000 0.0000 0.0000 -83.5565 3.9517 35.0813 15.4924 -24.8276 -3.4300 -0.0000 -0.0000 7.7928 17.9289 -26.7596 -8.2884 -7.1250 0.0000 -0.0000 -7.2301 2.2498 6.9973 -0.0000 0.0000 0.0000 87.0383 -2.9041 38.3544 -15.7916 25.2373 -3.5567 0.0000 0.0000 2.5918 -14.3184 -27.5745 6.7383 7.1250 -0.0000 -0.0000 17.7368 -57.4105 -5.5071
-29.8155 16.4412 2.1943 27.9826 84.7089 29.0856 0.0000 0.0000 0.0000 -20.0346 1.5832 -7.0719 2.9376 10.5933 30.9203 2.1758 1.8097 -28.5859 1.5222 -7.7905 -22.0796 0.0000 0.0000 0.0000 19.1116 -6.7230 -5.7799 -1.5217 -7.7893 22.0758 -1.7494 13.0700 -24.0805 -0.4892 -4.4845 12.4440 -5.2693 2.0763 3.6316 -1.1619 2.6324 1.8441 1.6497 1.3085 -0.3162 2.8967 0.7216 -20.3056 0.0235 0.2339 22.9180 -0.4268 0.4343 10.7515 0.0000 -0.0000 0.0000 -83.7312 3.9197 34.2959 15.4315 -24.7438 -3.4045 -0.0000 -0.0000 8.2504 16.4476 -26.9792 -7.6283 -7.1250 0.0000 -0.0000 -8.1358 2.2653 7.8888 0.0000 -0.0000 0.0000 86.9500 -2.9128 38.7622 -16.1038 25.6612 -3.6908 0.0000 0.0000 2.3543 -14.2244 -27.9997 6.7866 7.1250 -0.0000 -0.0000 18.1054 -57.7957 -5.7963
-29.8109 16.4427 2.2058 24.3594 85.0729 25.3701 0.0000 0.0000 0.0000 -19.4026 1.7746 -7.7849 3.1631 10.9545 32.1267 2.1403 1.6354 -28.2901 1.4837 -7.6957 -21.7937 0.0000 0.0000 0.0000 19.6480 -7.0857 -5.4640 -1.4599 -7.6366 21.6156 -1.7196 13.1006 -23.8931 -0.4511 -4.3088 11.9472 -4.7341 2.0159 4.0366 -0.9987 2.5409 1.8115 1.5078 1.2693 -0.5557 2.7683 0.7364 -20.1700 -0.0257 0.3075 22.5676 -0.4129 0.4429 10.5975 0.0000 -0.0000 0.0000 -83.4986 4.3501 35.1150 15.8138 -25.2675 -3.5661 -0.0000 -0.0000 7.1230 16.1012 -26.7813 -7.4106 -7.1250 0.0000 -0.0000 -8.3267 2.5184 8.0392 0.0000 -0.0000 0.0000 86.9091 -2.5625 38.9742 -15.9187 25.4103 -3.6110 0.0000 0.0000 2.4703 -14.3355 -27.7652 6.7892 7.1250 -0.0000 -0.0000 17.8399 -57.5962 -5.6211
-29.8048 16.4443 2.2181 18.9698 85.4125 19.9386 0.0000 0.0000 0.0000 -18.6940 1.7370 -8.5177 3.4226 11.3496 33.4680 2.1580 1.2578 -28.2635 1.2525 -7.0953 -19.9981 0.0000 0.0000 0.0000 20.3303 -7.2122 -5.0796 -1.3900 -7.4592 21.0831 -1.7334 12.7980 -23.9361 -0.3925 -4.0227 11.1404 -4.1922 1.9499 4.3185 -0.7531 2.4585 1.8513 1.4530 1.2299 -0.6564 2.5483 0.7951 -20.0479 0.0539 0.4322 22.0299 -0.3308 0.4799 10.3793 0.0000 -0.0000 0.0000 -83.5103 4.5056 35.3414 16.0331 -25.5655 -3.6602 -0.0000 -0.0000 6.6051 16.3448 -26.6730 -7.4997 -7.1250 0.0000 -0.0000 -8.1720 2.5902 7.8759 0.0000 -0.0000 0.0000 86.7871 -2.2382 39.0923 -15.8284 25.2874 -3.5723 0.0000 0.0000 2.6814 -14.3917 -27.2989 6.7121 7.1250 -0.0000 -0.0000 17.4895 -57.1628 -5.3216
-29.7947 16.4435 2.2302 15.5161 85.6968 16.4678 0.0000 0.0000 0.0000 -18.1950 1.6832 -9.3333 3.7220 11.7810 34.9615 2.1617 0.8221 -28.1303 1.0501 -6.5164 -18.2902 0.0000 0.0000 0.0000 20.7972 -7.2526 -4.6052 -1.3043 -7.2349 20.4131 -1.7415 12.4643 -23.9411 -0.4219 -4.1691 11.5528 -3.7728 1.8883 4.4782 -0.6192 2.3892 1.9379 1.3564 1.1952 -0.6421 2.3553 0.8408 -20.1992 0.1923 0.5068 21.7069 -0.2393 0.5073 10.2905 0.0000 -0.0000 0.0000 -83.6031 4.5128 35.1497 16.1585 -25.7351 -3.7145 -0.0000 -0.0000 6.5311 16.5361 -26.5512 -7.5597 -7.1250 0.0000 -0.0000 -8.0473 2.6834 7.7394 0.0000 -0.0000 0.0000 86.7343 -2.0927 39.1510 -16.0272 25.5575 -3.6577 0.0000 0.0000 2.6909 -14.2768 -27.3255 6.6626 7.1250 -0.0000 -0.0000 17.6241 -57.1639 -5.3647
-29.7833 16.4403 2.2408 10.5098 86.0411 11.3429 0.0000 0.0000 0.0000 -17.5746 1.7293 -10.1178 4.0514 12.2285 36.5453 2.1307 0.4113 -27.7877 0.9012 -6.0499 -16.9292 0.0000 0.0000 0.0000 21.3102 -7.6597 -4.0895 -1.2128 -6.9859 19.6736 -1.7308 12.2716 -23.8445 -0.4067 -4.0939 11.3409 -3.1367 1.8271 4.7716 -0.5601 2.3256 2.0152 1.0572 1.1665 -0.7015 2.3977 0.8324 -20.3922 0.1315 0.4844 21.5594 -0.2713 0.4889 10.2730 -0.0000 0.0000 0.0000 -83.6424 4.4707 34.6651 16.1588 -25.7355 -3.7147 -0.0000 -0.0000 6.7550 16.5931 -26.6829 -7.6214 -7.1250 0.0000 -0.0000 -8.0239 2.5416 7.7374 -0.0000 0.0000 0.0000 86.8152 -1.8962 39.3376 -16.1679 25.7478 -3.7186 0.0000 0.0000 2.6435 -14.3892 -27.5479 6.7668 7.1250 -0.0000 -0.0000 17.6470 -57.4002 -5.4736
-29.7742 16.4348 2.2506 1.6642 86.3427 2.3370 0.0000 0.0000 0.0000 -16.7733 1.7173 -10.9325 4.4110 12.6881 38.2117 2.0934 0.2507 -27.4887 0.8056 -5.7284 -15.9983 0.0000 0.0000 0.0000 22.0237 -8.0802 -3.5311 -1.1226 -6.7303 18.9189 -1.7011 12.1240 -23.6298 -0.3991 -4.0561 11.2345 -2.3502 1.7972 5.1980 -0.4406 2.3103 2.0616 0.7280 1.1633 -0.8660 2.5407 0.7876 -20.4958 -0.0886 0.4233 21.4099 -0.3823 0.4421 10.2381 -0.0000 -0.0000 0.0000 -83.8268 4.3153 33.6530 15.9979 -25.5178 -3.6451 -0.0000 -0.0000 7.4962 16.4904 -27.0405 -7.6649 -7.1250 0.0000 -0.0000 -8.1153 2.1967 7.8787 -0.0000 -0.0000 0.0000 86.7954 -1.6850 39.9564 -16.4078 26.0705 -3.8234 0.0000 0.0000 2.3353 -14.8807 -28.5911 7.2469 7.1250 -0.0000 -0.0000 17.8117 -58.5024 -6.0034
-29.7747 16.4417 2.2597 -6.5199 85.7585 -5.7118 0.0000 0.0000 0.0000 -16.0989 1.9737 -12.1658 4.8016 13.1568 39.9583 2.0479 0.4610 -27.2583 0.7646 -5.5839 -15.5818 0.0000 0.0000 0.0000 22.6703 -7.9907 -3.2586 -1.0297 -6.4546 18.1092 -1.5944 12.2420 -22.9323 -0.3828 -3.9734 11.0019 -1.7112 2.0352 5.4130 -0.2890 2.6529 2.0221 0.4965 1.3366 -1.0157 2.4150 0.7749 -20.6765 -0.0285 0.4204 21.3205 -0.3405 0.4349 10.2386 -0.0000 0.0000 0.0000 -83.5756 4.7512 34.4532 16.4764 -26.1623 -3.8536 -0.0000 -0.0000 6.6743 17.2679 -26.7170 -7.9558 -7.1250 0.0000 -0.0000 -7.6223 2.4003 7.3627 -0.0000 0.0000 0.0000 86.6810 -1.3187 39.8749 -16.3701 26.0199 -3.8069 0.0000 0.0000 2.1358 -14.8435 -27.6926 7.0214 7.1250 -0.0000 -0.0000 17.2681 -57.6357 -5.4501
